<mxfile host="65bd71144e">
    <diagram name="Page-1" id="GR684QuS6TuEK7YkChJR">
        <mxGraphModel dx="1133" dy="503" grid="1" gridSize="10" guides="1" tooltips="1" connect="1" arrows="1" fold="1" page="1" pageScale="1" pageWidth="850" pageHeight="1100" math="0" shadow="0">
            <root>
                <mxCell id="0"/>
                <mxCell id="1" parent="0"/>
                <mxCell id="yec2CG_WBPhMP0Cekt16-1" value="Main Menu" style="rounded=0;whiteSpace=wrap;html=1;" parent="1" vertex="1">
                    <mxGeometry x="160" y="240" width="120" height="60" as="geometry"/>
                </mxCell>
                <mxCell id="yec2CG_WBPhMP0Cekt16-3" value="Convert Upload Page" style="rounded=0;whiteSpace=wrap;html=1;" parent="1" vertex="1">
                    <mxGeometry x="160" y="120" width="120" height="60" as="geometry"/>
                </mxCell>
                <mxCell id="2" style="edgeStyle=none;html=1;exitX=0.75;exitY=1;exitDx=0;exitDy=0;entryX=0.25;entryY=1;entryDx=0;entryDy=0;" edge="1" parent="1" source="yec2CG_WBPhMP0Cekt16-4" target="yec2CG_WBPhMP0Cekt16-25">
                    <mxGeometry relative="1" as="geometry">
                        <Array as="points">
                            <mxPoint x="250" y="480"/>
                            <mxPoint x="470" y="480"/>
                        </Array>
                    </mxGeometry>
                </mxCell>
                <mxCell id="yec2CG_WBPhMP0Cekt16-4" value="View Upload Page" style="rounded=0;whiteSpace=wrap;html=1;" parent="1" vertex="1">
                    <mxGeometry x="160" y="360" width="120" height="60" as="geometry"/>
                </mxCell>
                <mxCell id="yec2CG_WBPhMP0Cekt16-6" value="" style="endArrow=classic;html=1;rounded=0;exitX=0.75;exitY=0;exitDx=0;exitDy=0;entryX=0.75;entryY=1;entryDx=0;entryDy=0;" parent="1" source="yec2CG_WBPhMP0Cekt16-1" target="yec2CG_WBPhMP0Cekt16-3" edge="1">
                    <mxGeometry width="50" height="50" relative="1" as="geometry">
                        <mxPoint x="230" y="310" as="sourcePoint"/>
                        <mxPoint x="230" y="370" as="targetPoint"/>
                    </mxGeometry>
                </mxCell>
                <mxCell id="yec2CG_WBPhMP0Cekt16-7" value="Click Convert Button" style="text;html=1;strokeColor=none;fillColor=none;align=left;verticalAlign=middle;whiteSpace=wrap;rounded=0;" parent="1" vertex="1">
                    <mxGeometry x="260" y="200" width="110" height="30" as="geometry"/>
                </mxCell>
                <mxCell id="yec2CG_WBPhMP0Cekt16-8" value="" style="endArrow=classic;html=1;rounded=0;exitX=0.25;exitY=1;exitDx=0;exitDy=0;entryX=0.25;entryY=0;entryDx=0;entryDy=0;" parent="1" source="yec2CG_WBPhMP0Cekt16-3" target="yec2CG_WBPhMP0Cekt16-1" edge="1">
                    <mxGeometry width="50" height="50" relative="1" as="geometry">
                        <mxPoint x="260" y="250" as="sourcePoint"/>
                        <mxPoint x="260" y="190" as="targetPoint"/>
                    </mxGeometry>
                </mxCell>
                <mxCell id="yec2CG_WBPhMP0Cekt16-9" value="Click Back Button" style="text;html=1;strokeColor=none;fillColor=none;align=right;verticalAlign=middle;whiteSpace=wrap;rounded=0;" parent="1" vertex="1">
                    <mxGeometry x="70" y="200" width="110" height="30" as="geometry"/>
                </mxCell>
                <mxCell id="yec2CG_WBPhMP0Cekt16-10" value="" style="endArrow=classic;html=1;rounded=0;exitX=0.75;exitY=0;exitDx=0;exitDy=0;entryX=0.75;entryY=1;entryDx=0;entryDy=0;" parent="1" edge="1">
                    <mxGeometry width="50" height="50" relative="1" as="geometry">
                        <mxPoint x="250" y="360" as="sourcePoint"/>
                        <mxPoint x="250" y="300" as="targetPoint"/>
                    </mxGeometry>
                </mxCell>
                <mxCell id="yec2CG_WBPhMP0Cekt16-11" value="Click Back Button" style="text;html=1;strokeColor=none;fillColor=none;align=left;verticalAlign=middle;whiteSpace=wrap;rounded=0;" parent="1" vertex="1">
                    <mxGeometry x="260" y="320" width="110" height="30" as="geometry"/>
                </mxCell>
                <mxCell id="yec2CG_WBPhMP0Cekt16-12" value="" style="endArrow=classic;html=1;rounded=0;exitX=0.25;exitY=1;exitDx=0;exitDy=0;entryX=0.25;entryY=0;entryDx=0;entryDy=0;" parent="1" edge="1">
                    <mxGeometry width="50" height="50" relative="1" as="geometry">
                        <mxPoint x="190" y="300" as="sourcePoint"/>
                        <mxPoint x="190" y="360" as="targetPoint"/>
                    </mxGeometry>
                </mxCell>
                <mxCell id="yec2CG_WBPhMP0Cekt16-13" value="Click View Button" style="text;html=1;strokeColor=none;fillColor=none;align=right;verticalAlign=middle;whiteSpace=wrap;rounded=0;" parent="1" vertex="1">
                    <mxGeometry x="70" y="320" width="110" height="30" as="geometry"/>
                </mxCell>
                <mxCell id="yec2CG_WBPhMP0Cekt16-14" value="Configure Conversion Menu and Image Render" style="rounded=0;whiteSpace=wrap;html=1;" parent="1" vertex="1">
                    <mxGeometry x="440" y="120" width="120" height="60" as="geometry"/>
                </mxCell>
                <mxCell id="yec2CG_WBPhMP0Cekt16-15" value="" style="endArrow=classic;html=1;rounded=0;exitX=1;exitY=0.75;exitDx=0;exitDy=0;entryX=0;entryY=0.75;entryDx=0;entryDy=0;" parent="1" source="yec2CG_WBPhMP0Cekt16-3" target="yec2CG_WBPhMP0Cekt16-14" edge="1">
                    <mxGeometry width="50" height="50" relative="1" as="geometry">
                        <mxPoint x="450" y="290" as="sourcePoint"/>
                        <mxPoint x="500" y="240" as="targetPoint"/>
                    </mxGeometry>
                </mxCell>
                <mxCell id="yec2CG_WBPhMP0Cekt16-16" value="" style="endArrow=classic;html=1;rounded=0;exitX=0;exitY=0.25;exitDx=0;exitDy=0;entryX=1;entryY=0.25;entryDx=0;entryDy=0;" parent="1" source="yec2CG_WBPhMP0Cekt16-14" target="yec2CG_WBPhMP0Cekt16-3" edge="1">
                    <mxGeometry width="50" height="50" relative="1" as="geometry">
                        <mxPoint x="340" y="140" as="sourcePoint"/>
                        <mxPoint x="390" y="90" as="targetPoint"/>
                    </mxGeometry>
                </mxCell>
                <mxCell id="yec2CG_WBPhMP0Cekt16-17" value="Select File" style="text;html=1;strokeColor=none;fillColor=none;align=center;verticalAlign=middle;whiteSpace=wrap;rounded=0;" parent="1" vertex="1">
                    <mxGeometry x="310" y="170" width="110" height="30" as="geometry"/>
                </mxCell>
                <mxCell id="yec2CG_WBPhMP0Cekt16-18" value="Click Back Button" style="text;html=1;strokeColor=none;fillColor=none;align=center;verticalAlign=middle;whiteSpace=wrap;rounded=0;" parent="1" vertex="1">
                    <mxGeometry x="310" y="90" width="110" height="30" as="geometry"/>
                </mxCell>
                <mxCell id="yec2CG_WBPhMP0Cekt16-19" value="" style="endArrow=classic;html=1;rounded=0;entryX=0;entryY=0.5;entryDx=0;entryDy=0;strokeWidth=4;" parent="1" target="yec2CG_WBPhMP0Cekt16-1" edge="1">
                    <mxGeometry width="50" height="50" relative="1" as="geometry">
                        <mxPoint x="80" y="270" as="sourcePoint"/>
                        <mxPoint x="120" y="270" as="targetPoint"/>
                    </mxGeometry>
                </mxCell>
                <mxCell id="yec2CG_WBPhMP0Cekt16-20" value="Loading Screen" style="rounded=0;whiteSpace=wrap;html=1;" parent="1" vertex="1">
                    <mxGeometry x="440" y="240" width="120" height="60" as="geometry"/>
                </mxCell>
                <mxCell id="yec2CG_WBPhMP0Cekt16-21" value="" style="endArrow=classic;html=1;rounded=0;exitX=0.75;exitY=0;exitDx=0;exitDy=0;entryX=0.75;entryY=1;entryDx=0;entryDy=0;" parent="1" edge="1">
                    <mxGeometry width="50" height="50" relative="1" as="geometry">
                        <mxPoint x="530" y="240" as="sourcePoint"/>
                        <mxPoint x="530" y="180" as="targetPoint"/>
                    </mxGeometry>
                </mxCell>
                <mxCell id="yec2CG_WBPhMP0Cekt16-22" value="Click Cancel Button" style="text;html=1;strokeColor=none;fillColor=none;align=left;verticalAlign=middle;whiteSpace=wrap;rounded=0;" parent="1" vertex="1">
                    <mxGeometry x="540" y="200" width="110" height="30" as="geometry"/>
                </mxCell>
                <mxCell id="yec2CG_WBPhMP0Cekt16-23" value="" style="endArrow=classic;html=1;rounded=0;exitX=0.25;exitY=1;exitDx=0;exitDy=0;entryX=0.25;entryY=0;entryDx=0;entryDy=0;" parent="1" edge="1">
                    <mxGeometry width="50" height="50" relative="1" as="geometry">
                        <mxPoint x="470" y="180" as="sourcePoint"/>
                        <mxPoint x="470" y="240" as="targetPoint"/>
                    </mxGeometry>
                </mxCell>
                <mxCell id="yec2CG_WBPhMP0Cekt16-24" value="Click Start Button" style="text;html=1;strokeColor=none;fillColor=none;align=right;verticalAlign=middle;whiteSpace=wrap;rounded=0;" parent="1" vertex="1">
                    <mxGeometry x="350" y="200" width="110" height="30" as="geometry"/>
                </mxCell>
                <mxCell id="4" style="edgeStyle=none;html=1;exitX=0.75;exitY=1;exitDx=0;exitDy=0;entryX=0.25;entryY=1;entryDx=0;entryDy=0;" edge="1" parent="1" source="yec2CG_WBPhMP0Cekt16-25" target="yec2CG_WBPhMP0Cekt16-4">
                    <mxGeometry relative="1" as="geometry">
                        <Array as="points">
                            <mxPoint x="530" y="520"/>
                            <mxPoint x="190" y="520"/>
                        </Array>
                    </mxGeometry>
                </mxCell>
                <mxCell id="yec2CG_WBPhMP0Cekt16-25" value="Conversion Renderer" style="rounded=0;whiteSpace=wrap;html=1;" parent="1" vertex="1">
                    <mxGeometry x="440" y="360" width="120" height="60" as="geometry"/>
                </mxCell>
                <mxCell id="yec2CG_WBPhMP0Cekt16-26" value="" style="endArrow=classic;html=1;rounded=0;exitX=1;exitY=0.5;exitDx=0;exitDy=0;entryX=1;entryY=0.5;entryDx=0;entryDy=0;" parent="1" source="yec2CG_WBPhMP0Cekt16-25" target="yec2CG_WBPhMP0Cekt16-14" edge="1">
                    <mxGeometry width="50" height="50" relative="1" as="geometry">
                        <mxPoint x="610" y="390" as="sourcePoint"/>
                        <mxPoint x="610" y="330" as="targetPoint"/>
                        <Array as="points">
                            <mxPoint x="760" y="390"/>
                            <mxPoint x="760" y="150"/>
                        </Array>
                    </mxGeometry>
                </mxCell>
                <mxCell id="yec2CG_WBPhMP0Cekt16-27" value="Click Back Button" style="text;html=1;strokeColor=none;fillColor=none;align=center;verticalAlign=middle;whiteSpace=wrap;rounded=0;" parent="1" vertex="1">
                    <mxGeometry x="640" y="255" width="110" height="30" as="geometry"/>
                </mxCell>
                <mxCell id="yec2CG_WBPhMP0Cekt16-28" value="" style="endArrow=classic;html=1;rounded=0;exitX=0.25;exitY=1;exitDx=0;exitDy=0;entryX=0.25;entryY=0;entryDx=0;entryDy=0;" parent="1" edge="1">
                    <mxGeometry width="50" height="50" relative="1" as="geometry">
                        <mxPoint x="500" y="300" as="sourcePoint"/>
                        <mxPoint x="500" y="360" as="targetPoint"/>
                    </mxGeometry>
                </mxCell>
                <mxCell id="yec2CG_WBPhMP0Cekt16-29" value="Click Start Button" style="text;html=1;strokeColor=none;fillColor=none;align=right;verticalAlign=middle;whiteSpace=wrap;rounded=0;" parent="1" vertex="1">
                    <mxGeometry x="380" y="320" width="110" height="30" as="geometry"/>
                </mxCell>
                <mxCell id="yec2CG_WBPhMP0Cekt16-31" value="" style="endArrow=classic;html=1;rounded=0;exitX=0;exitY=0.5;exitDx=0;exitDy=0;entryX=1;entryY=0.5;entryDx=0;entryDy=0;" parent="1" source="yec2CG_WBPhMP0Cekt16-25" target="yec2CG_WBPhMP0Cekt16-1" edge="1">
                    <mxGeometry width="50" height="50" relative="1" as="geometry">
                        <mxPoint x="460" y="560" as="sourcePoint"/>
                        <mxPoint x="510" y="510" as="targetPoint"/>
                        <Array as="points">
                            <mxPoint x="380" y="390"/>
                            <mxPoint x="380" y="270"/>
                        </Array>
                    </mxGeometry>
                </mxCell>
                <mxCell id="yec2CG_WBPhMP0Cekt16-32" value="Click Home Button" style="text;html=1;strokeColor=none;fillColor=none;align=center;verticalAlign=middle;whiteSpace=wrap;rounded=0;" parent="1" vertex="1">
                    <mxGeometry x="330" y="390" width="110" height="30" as="geometry"/>
                </mxCell>
                <mxCell id="3" value="Select File" style="text;html=1;strokeColor=none;fillColor=none;align=center;verticalAlign=middle;whiteSpace=wrap;rounded=0;" vertex="1" parent="1">
                    <mxGeometry x="300" y="440" width="110" height="30" as="geometry"/>
                </mxCell>
                <mxCell id="5" value="Click Back Button" style="text;html=1;strokeColor=none;fillColor=none;align=center;verticalAlign=middle;whiteSpace=wrap;rounded=0;" vertex="1" parent="1">
                    <mxGeometry x="310" y="530" width="110" height="30" as="geometry"/>
                </mxCell>
            </root>
        </mxGraphModel>
    </diagram>
</mxfile>